<svg xmlns="http://www.w3.org/2000/svg" xmlns:xlink="http://www.w3.org/1999/xlink" width="500" zoomAndPan="magnify" viewBox="0 0 375 374.999991" height="500" preserveAspectRatio="xMidYMid meet" version="1.0"><defs><g/><clipPath id="85ec406fcf"><path d="M 100.273438 255.039062 L 274.726562 255.039062 L 274.726562 323.855469 L 100.273438 323.855469 Z M 100.273438 255.039062 " clip-rule="nonzero"/></clipPath><clipPath id="32fcf8a5a0"><path d="M 0.273438 0.0390625 L 174.726562 0.0390625 L 174.726562 68.855469 L 0.273438 68.855469 Z M 0.273438 0.0390625 " clip-rule="nonzero"/></clipPath><clipPath id="c998612b1c"><rect x="0" width="175" y="0" height="69"/></clipPath><clipPath id="ec37a3709c"><path d="M 166.246094 143.574219 L 208.425781 143.574219 L 208.425781 173.316406 L 166.246094 173.316406 Z M 166.246094 143.574219 " clip-rule="nonzero"/></clipPath><clipPath id="56b7e72029"><path d="M 0.246094 0.574219 L 42.425781 0.574219 L 42.425781 30.316406 L 0.246094 30.316406 Z M 0.246094 0.574219 " clip-rule="nonzero"/></clipPath><clipPath id="c206d6af6e"><rect x="0" width="43" y="0" height="31"/></clipPath><clipPath id="ff373e7657"><rect x="0" width="129" y="0" height="213"/></clipPath><clipPath id="27ce2b413e"><path d="M 0.519531 12 L 147 12 L 147 206 L 0.519531 206 Z M 0.519531 12 " clip-rule="nonzero"/></clipPath><clipPath id="895d201137"><rect x="0" width="186" y="0" height="232"/></clipPath></defs><rect x="-37.5" width="450" fill="#ffffff" y="-37.499999" height="449.999989" fill-opacity="1"/><rect x="-37.5" width="450" fill="#000000" y="-37.499999" height="449.999989" fill-opacity="1"/><g clip-path="url(#85ec406fcf)"><g transform="matrix(1, 0, 0, 1, 100, 255)"><g clip-path="url(#c998612b1c)"><g clip-path="url(#32fcf8a5a0)"><path fill="#000000" d="M 0.273438 0.0390625 L 174.730469 0.0390625 L 174.730469 68.855469 L 0.273438 68.855469 Z M 0.273438 0.0390625 " fill-opacity="1" fill-rule="nonzero"/></g></g></g></g><g clip-path="url(#ec37a3709c)"><g transform="matrix(1, 0, 0, 1, 166, 143)"><g clip-path="url(#c206d6af6e)"><g clip-path="url(#56b7e72029)"><path fill="#000000" d="M 0.246094 0.574219 L 42.417969 0.574219 L 42.417969 30.316406 L 0.246094 30.316406 Z M 0.246094 0.574219 " fill-opacity="1" fill-rule="nonzero"/></g></g></g></g><g transform="matrix(1, 0, 0, 1, 93, 65)"><g clip-path="url(#ff373e7657)"><g fill="#e74528" fill-opacity="1"><g transform="translate(0.926366, 153.908952)"><g><path d="M 114.171875 -1.5625 L 116.046875 -1.5625 L 116.046875 0 L 81.90625 0 L 81.90625 -1.5625 L 83.9375 -1.5625 C 86.550781 -1.5625 88.820312 -2.472656 90.75 -4.296875 C 92.6875 -6.128906 93.757812 -8.40625 93.96875 -11.125 L 93.96875 -51.84375 L 33.359375 -51.84375 L 33.359375 -10.96875 C 33.359375 3.65625 29.804688 13.472656 22.703125 18.484375 C 19.472656 20.773438 15.296875 22.492188 10.171875 23.640625 L 9.390625 22.234375 C 14.085938 19.734375 17.554688 15.867188 19.796875 10.640625 C 22.046875 5.421875 23.171875 -1.78125 23.171875 -10.96875 L 23.171875 -98.34375 C 23.171875 -101.0625 22.179688 -103.359375 20.203125 -105.234375 C 18.222656 -107.117188 15.875 -108.0625 13.15625 -108.0625 L 11.28125 -108.0625 L 11.28125 -109.625 L 45.421875 -109.625 L 45.421875 -108.0625 L 43.375 -108.0625 C 40.664062 -108.0625 38.34375 -107.117188 36.40625 -105.234375 C 34.476562 -103.359375 33.460938 -101.0625 33.359375 -98.34375 L 33.359375 -56.53125 L 93.96875 -56.53125 L 93.96875 -95.53125 C 94.070312 -108.894531 97.046875 -118.1875 102.890625 -123.40625 C 106.441406 -126.539062 111.242188 -128.785156 117.296875 -130.140625 L 118.078125 -128.734375 C 113.378906 -126.222656 109.878906 -122.359375 107.578125 -117.140625 C 105.285156 -111.921875 104.140625 -104.71875 104.140625 -95.53125 L 104.140625 -11.4375 C 104.140625 -8.71875 105.101562 -6.390625 107.03125 -4.453125 C 108.96875 -2.523438 111.347656 -1.5625 114.171875 -1.5625 Z M 114.171875 -1.5625 "/></g></g></g></g></g><g transform="matrix(1, 0, 0, 1, 125, 46)"><g clip-path="url(#895d201137)"><g clip-path="url(#27ce2b413e)"><g fill="#000000" fill-opacity="1"><g transform="translate(2.049381, 167.182518)"><g><path d="M 124.84375 -12.953125 L 138.140625 -12.953125 L 138.140625 11.238281 L 78.328125 11.238281 L 78.328125 -12.953125 L 91.792969 -12.953125 L 91.796875 -12.945312 C 91.734375 -12.933594 91.667969 -12.914062 91.601562 -12.886719 C 91.539062 -12.863281 91.488281 -12.839844 91.449219 -12.8125 C 91.457031 -12.816406 91.480469 -12.839844 91.519531 -12.875 L 91.539062 -12.863281 C 91.527344 -12.839844 91.519531 -12.824219 91.519531 -12.816406 C 91.53125 -12.863281 91.539062 -12.933594 91.546875 -13.019531 L 102.753906 -12.160156 L 91.515625 -12.160156 L 91.515625 -56.683594 L 102.753906 -56.683594 L 102.753906 -45.445312 L 36.476562 -45.445312 L 36.476562 -56.683594 L 47.714844 -56.683594 L 47.714844 -11.988281 C 47.714844 7.878906 42.25 21.671875 31.3125 29.390625 C 26.5625 32.761719 20.65625 35.238281 13.59375 36.824219 L 5.390625 38.667969 L -5.101562 19.78125 L 4.988281 14.402344 C 7.804688 12.898438 9.921875 10.5 11.339844 7.207031 C 13.183594 2.914062 14.105469 -3.484375 14.105469 -11.988281 L 14.105469 -107.546875 C 14.105469 -107.292969 14.191406 -107.085938 14.363281 -106.925781 L 14.386719 -106.925781 L 1.089844 -106.925781 L 1.089844 -131.117188 L 60.902344 -131.117188 L 60.902344 -106.925781 L 47.4375 -106.925781 C 47.511719 -106.925781 47.585938 -106.960938 47.65625 -107.027344 C 47.6875 -107.0625 47.707031 -107.089844 47.707031 -107.117188 L 36.476562 -107.546875 L 47.714844 -107.546875 L 47.714844 -61.824219 L 36.476562 -61.824219 L 36.476562 -73.0625 L 102.753906 -73.0625 L 102.753906 -61.824219 L 91.515625 -61.824219 L 91.515625 -104.464844 C 91.65625 -122.457031 96.160156 -135.414062 105.027344 -143.332031 C 110.386719 -148.058594 117.3125 -151.375 125.8125 -153.28125 L 134.011719 -155.117188 L 144.503906 -136.234375 L 134.414062 -130.855469 C 131.566406 -129.335938 129.40625 -126.90625 127.9375 -123.574219 C 126.0625 -119.304688 125.125 -112.9375 125.125 -104.464844 L 125.125 -12.5 C 125.125 -12.636719 125.082031 -12.746094 125 -12.828125 L 125 -12.820312 C 124.945312 -12.855469 124.886719 -12.886719 124.816406 -12.914062 C 124.761719 -12.9375 124.714844 -12.953125 124.679688 -12.960938 C 124.710938 -12.953125 124.765625 -12.953125 124.84375 -12.953125 Z M 124.84375 9.527344 C 118.660156 9.527344 113.414062 7.371094 109.105469 3.066406 C 104.800781 -1.242188 102.644531 -6.429688 102.644531 -12.5 L 102.644531 -104.464844 C 102.644531 -116.089844 104.21875 -125.472656 107.363281 -132.625 C 110.921875 -140.707031 116.410156 -146.726562 123.835938 -150.6875 L 129.125 -140.773438 L 119.300781 -135.3125 L 118.445312 -136.855469 L 128.269531 -142.3125 L 130.726562 -131.347656 C 125.984375 -130.28125 122.40625 -128.6875 120 -126.566406 C 118.324219 -125.070312 116.988281 -122.753906 115.984375 -119.621094 C 114.703125 -115.625 114.039062 -110.574219 113.992188 -104.464844 L 113.992188 -50.585938 L 25.238281 -50.585938 L 25.238281 -107.765625 L 25.246094 -107.980469 C 25.476562 -113.941406 27.71875 -118.996094 31.980469 -123.136719 C 36.273438 -127.316406 41.425781 -129.40625 47.4375 -129.40625 L 49.664062 -129.40625 L 49.664062 -118.164062 L 38.425781 -118.164062 L 38.425781 -119.878906 L 49.664062 -119.878906 L 49.664062 -108.640625 L 12.332031 -108.640625 L 12.332031 -119.878906 L 23.570312 -119.878906 L 23.570312 -118.164062 L 12.332031 -118.164062 L 12.332031 -129.40625 L 14.386719 -129.40625 C 20.339844 -129.40625 25.484375 -127.351562 29.820312 -123.242188 C 34.332031 -118.972656 36.585938 -113.738281 36.585938 -107.546875 L 36.585938 -11.988281 C 36.585938 -0.398438 35.050781 8.960938 31.988281 16.085938 C 28.496094 24.207031 23.019531 30.257812 15.5625 34.234375 L 10.273438 24.316406 L 20.101562 18.859375 L 20.957031 20.402344 L 11.132812 25.859375 L 8.667969 14.894531 C 12.796875 13.96875 16.023438 12.679688 18.351562 11.027344 C 20.308594 9.644531 21.855469 7.378906 22.996094 4.226562 C 24.492188 0.09375 25.238281 -5.308594 25.238281 -11.988281 L 25.238281 -67.925781 L 113.992188 -67.925781 L 113.992188 -11.726562 L 113.957031 -11.296875 C 113.507812 -5.445312 111.175781 -0.527344 106.964844 3.457031 C 102.6875 7.503906 97.628906 9.527344 91.792969 9.527344 L 89.566406 9.527344 L 89.566406 -1.710938 L 100.804688 -1.710938 L 100.804688 0 L 89.566406 0 L 89.566406 -11.238281 L 126.898438 -11.238281 L 126.898438 0 L 115.660156 0 L 115.660156 -1.710938 L 126.898438 -1.710938 L 126.898438 9.527344 Z M 124.84375 9.527344 "/></g></g></g></g><g fill="#000000" fill-opacity="1"><g transform="translate(141.277742, 167.182518)"><g/></g></g><g fill="#ffffff" fill-opacity="1"><g transform="translate(2.049381, 167.182518)"><g><path d="M 124.84375 -1.71875 L 126.890625 -1.71875 L 126.890625 0 L 89.5625 0 L 89.5625 -1.71875 L 91.796875 -1.71875 C 94.648438 -1.71875 97.128906 -2.710938 99.234375 -4.703125 C 101.347656 -6.703125 102.519531 -9.1875 102.75 -12.15625 L 102.75 -56.6875 L 36.46875 -56.6875 L 36.46875 -11.984375 C 36.46875 3.992188 32.585938 14.722656 24.828125 20.203125 C 21.285156 22.710938 16.71875 24.597656 11.125 25.859375 L 10.28125 24.3125 C 15.414062 21.570312 19.207031 17.347656 21.65625 11.640625 C 24.113281 5.929688 25.34375 -1.941406 25.34375 -11.984375 L 25.34375 -107.546875 C 25.34375 -110.515625 24.257812 -113.023438 22.09375 -115.078125 C 19.925781 -117.128906 17.359375 -118.15625 14.390625 -118.15625 L 12.328125 -118.15625 L 12.328125 -119.875 L 49.65625 -119.875 L 49.65625 -118.15625 L 47.4375 -118.15625 C 44.46875 -118.15625 41.925781 -117.128906 39.8125 -115.078125 C 37.695312 -113.023438 36.582031 -110.515625 36.46875 -107.546875 L 36.46875 -61.828125 L 102.75 -61.828125 L 102.75 -104.46875 C 102.863281 -119.070312 106.117188 -129.226562 112.515625 -134.9375 C 116.390625 -138.363281 121.640625 -140.820312 128.265625 -142.3125 L 129.125 -140.765625 C 123.988281 -138.023438 120.160156 -133.800781 117.640625 -128.09375 C 115.128906 -122.382812 113.875 -114.507812 113.875 -104.46875 L 113.875 -12.5 C 113.875 -9.53125 114.929688 -6.988281 117.046875 -4.875 C 119.160156 -2.769531 121.757812 -1.71875 124.84375 -1.71875 Z M 124.84375 -1.71875 "/></g></g></g><g fill="#ffffff" fill-opacity="1"><g transform="translate(141.277742, 167.182518)"><g/></g></g></g></g><g fill="#ffffff" fill-opacity="1"><g transform="translate(106.418441, 269.133585)"><g><path d="M 2.359375 -0.515625 C 2.347656 -0.421875 2.304688 -0.328125 2.234375 -0.234375 C 2.160156 -0.140625 2.070312 -0.0625 1.96875 0 C 1.875 0.0507812 1.796875 0.078125 1.734375 0.078125 C 1.523438 0.078125 1.382812 -0.0195312 1.3125 -0.21875 C 1.25 -0.425781 1.21875 -0.722656 1.21875 -1.109375 C 1.21875 -1.234375 1.222656 -1.75 1.234375 -2.65625 C 1.242188 -3.144531 1.25 -3.476562 1.25 -3.65625 C 1.25 -4.070312 1.242188 -4.628906 1.234375 -5.328125 L 1.234375 -6.609375 C 1.234375 -7.503906 1.269531 -8.160156 1.34375 -8.578125 C 1.425781 -9.003906 1.582031 -9.21875 1.8125 -9.21875 C 1.882812 -9.21875 1.957031 -9.164062 2.03125 -9.0625 C 2.113281 -8.96875 2.179688 -8.847656 2.234375 -8.703125 C 2.296875 -8.554688 2.328125 -8.414062 2.328125 -8.28125 L 2.328125 -6.765625 C 2.316406 -6.429688 2.3125 -5.9375 2.3125 -5.28125 L 6.171875 -5.28125 C 6.148438 -6.8125 6.140625 -7.765625 6.140625 -8.140625 C 6.148438 -8.503906 6.1875 -8.78125 6.25 -8.96875 C 6.3125 -9.164062 6.441406 -9.265625 6.640625 -9.265625 C 6.867188 -9.265625 7.019531 -9.144531 7.09375 -8.90625 C 7.175781 -8.664062 7.21875 -8.285156 7.21875 -7.765625 C 7.21875 -7.679688 7.21875 -7.601562 7.21875 -7.53125 C 7.21875 -7.414062 7.210938 -7.160156 7.203125 -6.765625 C 7.203125 -6.378906 7.203125 -5.863281 7.203125 -5.21875 C 7.234375 -5.144531 7.257812 -5.054688 7.28125 -4.953125 C 7.3125 -4.847656 7.332031 -4.738281 7.34375 -4.625 L 7.25 -4.125 C 7.28125 -2.914062 7.296875 -1.78125 7.296875 -0.71875 C 7.296875 -0.488281 7.242188 -0.296875 7.140625 -0.140625 C 7.035156 0.015625 6.898438 0.09375 6.734375 0.09375 C 6.523438 0.09375 6.375 0.015625 6.28125 -0.140625 C 6.195312 -0.304688 6.15625 -0.601562 6.15625 -1.03125 L 6.203125 -3.796875 L 4.65625 -3.796875 C 3.988281 -3.796875 3.492188 -3.789062 3.171875 -3.78125 C 2.859375 -3.769531 2.570312 -3.753906 2.3125 -3.734375 C 2.332031 -1.765625 2.34375 -0.789062 2.34375 -0.8125 Z M 2.359375 -0.515625 "/></g></g></g><g fill="#ffffff" fill-opacity="1"><g transform="translate(120.014799, 269.133585)"><g><path d="M 2.90625 -3.078125 C 2.800781 -3.078125 2.722656 -3.0625 2.671875 -3.03125 C 2.617188 -3 2.570312 -2.941406 2.53125 -2.859375 C 2.488281 -2.773438 2.429688 -2.617188 2.359375 -2.390625 L 1.84375 -0.921875 C 1.832031 -0.660156 1.785156 -0.453125 1.703125 -0.296875 C 1.617188 -0.148438 1.53125 -0.0507812 1.4375 0 C 1.34375 0.0625 1.265625 0.09375 1.203125 0.09375 C 1.023438 0.09375 0.890625 0.0507812 0.796875 -0.03125 C 0.710938 -0.125 0.671875 -0.285156 0.671875 -0.515625 C 0.671875 -0.878906 0.753906 -1.210938 0.921875 -1.515625 L 1.09375 -2.03125 C 1.28125 -2.582031 1.441406 -3.035156 1.578125 -3.390625 C 1.554688 -3.441406 1.546875 -3.515625 1.546875 -3.609375 C 1.546875 -3.847656 1.578125 -4.035156 1.640625 -4.171875 C 1.703125 -4.316406 1.8125 -4.441406 1.96875 -4.546875 L 3.40625 -7.9375 C 3.414062 -7.957031 3.425781 -7.976562 3.4375 -8 C 3.457031 -8.03125 3.472656 -8.066406 3.484375 -8.109375 C 3.671875 -8.484375 3.835938 -8.78125 3.984375 -9 C 4.140625 -9.21875 4.300781 -9.328125 4.46875 -9.328125 C 4.84375 -9.328125 5.1875 -9.0625 5.5 -8.53125 C 5.820312 -8.007812 6.09375 -7.390625 6.3125 -6.671875 C 6.539062 -5.953125 6.796875 -5.050781 7.078125 -3.96875 C 7.273438 -3.195312 7.429688 -2.625 7.546875 -2.25 C 7.660156 -1.882812 7.769531 -1.640625 7.875 -1.515625 C 7.894531 -1.492188 7.914062 -1.46875 7.9375 -1.4375 C 7.957031 -1.414062 7.984375 -1.390625 8.015625 -1.359375 C 8.097656 -1.253906 8.15625 -1.171875 8.1875 -1.109375 C 8.226562 -1.054688 8.253906 -0.988281 8.265625 -0.90625 C 8.285156 -0.820312 8.296875 -0.707031 8.296875 -0.5625 C 8.296875 -0.0703125 8.0625 0.171875 7.59375 0.171875 C 7.394531 0.171875 7.210938 -0.0078125 7.046875 -0.375 C 6.878906 -0.75 6.75 -1.140625 6.65625 -1.546875 L 6.59375 -1.765625 C 6.476562 -2.179688 6.390625 -2.46875 6.328125 -2.625 C 6.265625 -2.78125 6.1875 -2.894531 6.09375 -2.96875 C 6 -3.039062 5.863281 -3.078125 5.6875 -3.078125 Z M 3.734375 -4.59375 C 4.097656 -4.570312 4.457031 -4.5625 4.8125 -4.5625 C 5.1875 -4.5625 5.476562 -4.570312 5.6875 -4.59375 C 5.539062 -5.039062 5.316406 -5.585938 5.015625 -6.234375 L 4.40625 -7.53125 C 4.3125 -7.476562 4.125 -7.113281 3.84375 -6.4375 C 3.570312 -5.757812 3.34375 -5.148438 3.15625 -4.609375 Z M 3.734375 -4.59375 "/></g></g></g><g fill="#ffffff" fill-opacity="1"><g transform="translate(134.171781, 269.133585)"><g><path d="M 2.53125 -0.671875 C 2.53125 -0.429688 2.46875 -0.238281 2.34375 -0.09375 C 2.226562 0.0390625 2.070312 0.109375 1.875 0.109375 C 1.726562 0.109375 1.597656 0.0195312 1.484375 -0.15625 C 1.378906 -0.34375 1.328125 -0.546875 1.328125 -0.765625 C 1.328125 -0.835938 1.335938 -0.957031 1.359375 -1.125 C 1.378906 -1.289062 1.390625 -1.410156 1.390625 -1.484375 C 1.390625 -1.609375 1.367188 -1.84375 1.328125 -2.1875 C 1.273438 -2.707031 1.226562 -3.226562 1.1875 -3.75 C 1.15625 -4.28125 1.140625 -4.875 1.140625 -5.53125 C 1.140625 -6.019531 1.164062 -6.46875 1.21875 -6.875 C 1.28125 -7.28125 1.398438 -7.578125 1.578125 -7.765625 C 2.453125 -8.628906 3.367188 -9.0625 4.328125 -9.0625 C 4.679688 -9.0625 5.015625 -8.984375 5.328125 -8.828125 C 5.648438 -8.671875 5.910156 -8.429688 6.109375 -8.109375 C 6.304688 -7.796875 6.40625 -7.40625 6.40625 -6.9375 C 6.40625 -6.507812 6.3125 -6.148438 6.125 -5.859375 C 5.945312 -5.566406 5.710938 -5.328125 5.421875 -5.140625 C 5.941406 -4.960938 6.335938 -4.695312 6.609375 -4.34375 C 6.878906 -4 7.054688 -3.582031 7.140625 -3.09375 C 7.234375 -2.613281 7.28125 -2.019531 7.28125 -1.3125 C 7.28125 -0.925781 7.269531 -0.613281 7.25 -0.375 C 7.226562 -0.132812 7.175781 0.0625 7.09375 0.21875 C 7.019531 0.375 6.898438 0.453125 6.734375 0.453125 C 6.535156 0.453125 6.398438 0.375 6.328125 0.21875 C 6.265625 0.0625 6.234375 -0.160156 6.234375 -0.453125 L 6.234375 -0.640625 C 6.234375 -0.890625 6.234375 -1.078125 6.234375 -1.203125 L 6.25 -1.796875 C 6.25 -2.015625 6.242188 -2.203125 6.234375 -2.359375 C 6.222656 -2.523438 6.195312 -2.71875 6.15625 -2.9375 C 6.03125 -3.195312 5.828125 -3.40625 5.546875 -3.5625 C 5.273438 -3.726562 4.972656 -3.847656 4.640625 -3.921875 C 4.304688 -4.003906 3.976562 -4.046875 3.65625 -4.046875 C 3.519531 -4.046875 3.289062 -4.003906 2.96875 -3.921875 C 2.65625 -3.835938 2.40625 -3.742188 2.21875 -3.640625 C 2.226562 -3.191406 2.257812 -2.671875 2.3125 -2.078125 C 2.375 -1.484375 2.445312 -1.015625 2.53125 -0.671875 Z M 2.078125 -6.015625 C 2.078125 -5.753906 2.097656 -5.503906 2.140625 -5.265625 C 2.554688 -5.347656 3.023438 -5.46875 3.546875 -5.625 C 4.066406 -5.789062 4.515625 -5.972656 4.890625 -6.171875 C 5.265625 -6.378906 5.453125 -6.570312 5.453125 -6.75 C 5.453125 -7.082031 5.34375 -7.320312 5.125 -7.46875 C 4.90625 -7.613281 4.644531 -7.6875 4.34375 -7.6875 C 4.0625 -7.6875 3.742188 -7.628906 3.390625 -7.515625 C 3.046875 -7.410156 2.742188 -7.265625 2.484375 -7.078125 C 2.234375 -6.898438 2.101562 -6.703125 2.09375 -6.484375 L 2.09375 -6.25 C 2.082031 -6.15625 2.078125 -6.078125 2.078125 -6.015625 Z M 2.078125 -6.015625 "/></g></g></g><g fill="#e74528" fill-opacity="1"><g transform="translate(147.363754, 269.133585)"><g><path d="M 1.84375 -3.75 C 1.6875 -3.75 1.570312 -3.816406 1.5 -3.953125 C 1.425781 -4.097656 1.390625 -4.273438 1.390625 -4.484375 L 1.546875 -6.71875 C 1.585938 -7.25 1.609375 -7.757812 1.609375 -8.25 L 1.484375 -10.125 C 1.492188 -10.4375 1.550781 -10.6875 1.65625 -10.875 C 1.769531 -11.0625 1.921875 -11.15625 2.109375 -11.15625 C 2.316406 -11.15625 2.460938 -11.085938 2.546875 -10.953125 C 2.640625 -10.816406 2.6875 -10.597656 2.6875 -10.296875 C 2.6875 -10.023438 2.632812 -9.160156 2.53125 -7.703125 L 2.359375 -5.328125 C 2.335938 -4.941406 2.285156 -4.582031 2.203125 -4.25 C 2.128906 -3.914062 2.007812 -3.75 1.84375 -3.75 Z M 2.21875 -0.71875 C 2.21875 -0.5 2.164062 -0.285156 2.0625 -0.078125 C 1.96875 0.117188 1.804688 0.21875 1.578125 0.21875 C 1.398438 0.21875 1.269531 0.179688 1.1875 0.109375 C 1.101562 0.0351562 1.050781 -0.0664062 1.03125 -0.203125 C 1.007812 -0.335938 1 -0.535156 1 -0.796875 C 1 -1.117188 1.066406 -1.375 1.203125 -1.5625 C 1.335938 -1.75 1.515625 -1.84375 1.734375 -1.84375 C 1.878906 -1.84375 1.988281 -1.789062 2.0625 -1.6875 C 2.132812 -1.59375 2.175781 -1.46875 2.1875 -1.3125 C 2.207031 -1.15625 2.21875 -0.957031 2.21875 -0.71875 Z M 2.21875 -0.71875 "/></g></g></g><g fill="#e74528" fill-opacity="1"><g transform="translate(156.088752, 269.133585)"><g/></g></g><g fill="#ffffff" fill-opacity="1"><g transform="translate(164.379378, 269.133585)"><g><path d="M 2.359375 -0.515625 C 2.347656 -0.421875 2.304688 -0.328125 2.234375 -0.234375 C 2.160156 -0.140625 2.070312 -0.0625 1.96875 0 C 1.875 0.0507812 1.796875 0.078125 1.734375 0.078125 C 1.523438 0.078125 1.382812 -0.0195312 1.3125 -0.21875 C 1.25 -0.425781 1.21875 -0.722656 1.21875 -1.109375 C 1.21875 -1.234375 1.222656 -1.75 1.234375 -2.65625 C 1.242188 -3.144531 1.25 -3.476562 1.25 -3.65625 C 1.25 -4.070312 1.242188 -4.628906 1.234375 -5.328125 L 1.234375 -6.609375 C 1.234375 -7.503906 1.269531 -8.160156 1.34375 -8.578125 C 1.425781 -9.003906 1.582031 -9.21875 1.8125 -9.21875 C 1.882812 -9.21875 1.957031 -9.164062 2.03125 -9.0625 C 2.113281 -8.96875 2.179688 -8.847656 2.234375 -8.703125 C 2.296875 -8.554688 2.328125 -8.414062 2.328125 -8.28125 L 2.328125 -6.765625 C 2.316406 -6.429688 2.3125 -5.9375 2.3125 -5.28125 L 6.171875 -5.28125 C 6.148438 -6.8125 6.140625 -7.765625 6.140625 -8.140625 C 6.148438 -8.503906 6.1875 -8.78125 6.25 -8.96875 C 6.3125 -9.164062 6.441406 -9.265625 6.640625 -9.265625 C 6.867188 -9.265625 7.019531 -9.144531 7.09375 -8.90625 C 7.175781 -8.664062 7.21875 -8.285156 7.21875 -7.765625 C 7.21875 -7.679688 7.21875 -7.601562 7.21875 -7.53125 C 7.21875 -7.414062 7.210938 -7.160156 7.203125 -6.765625 C 7.203125 -6.378906 7.203125 -5.863281 7.203125 -5.21875 C 7.234375 -5.144531 7.257812 -5.054688 7.28125 -4.953125 C 7.3125 -4.847656 7.332031 -4.738281 7.34375 -4.625 L 7.25 -4.125 C 7.28125 -2.914062 7.296875 -1.78125 7.296875 -0.71875 C 7.296875 -0.488281 7.242188 -0.296875 7.140625 -0.140625 C 7.035156 0.015625 6.898438 0.09375 6.734375 0.09375 C 6.523438 0.09375 6.375 0.015625 6.28125 -0.140625 C 6.195312 -0.304688 6.15625 -0.601562 6.15625 -1.03125 L 6.203125 -3.796875 L 4.65625 -3.796875 C 3.988281 -3.796875 3.492188 -3.789062 3.171875 -3.78125 C 2.859375 -3.769531 2.570312 -3.753906 2.3125 -3.734375 C 2.332031 -1.765625 2.34375 -0.789062 2.34375 -0.8125 Z M 2.359375 -0.515625 "/></g></g></g><g fill="#e74528" fill-opacity="1"><g transform="translate(177.984842, 269.133585)"><g><path d="M 1.84375 -3.75 C 1.6875 -3.75 1.570312 -3.816406 1.5 -3.953125 C 1.425781 -4.097656 1.390625 -4.273438 1.390625 -4.484375 L 1.546875 -6.71875 C 1.585938 -7.25 1.609375 -7.757812 1.609375 -8.25 L 1.484375 -10.125 C 1.492188 -10.4375 1.550781 -10.6875 1.65625 -10.875 C 1.769531 -11.0625 1.921875 -11.15625 2.109375 -11.15625 C 2.316406 -11.15625 2.460938 -11.085938 2.546875 -10.953125 C 2.640625 -10.816406 2.6875 -10.597656 2.6875 -10.296875 C 2.6875 -10.023438 2.632812 -9.160156 2.53125 -7.703125 L 2.359375 -5.328125 C 2.335938 -4.941406 2.285156 -4.582031 2.203125 -4.25 C 2.128906 -3.914062 2.007812 -3.75 1.84375 -3.75 Z M 2.21875 -0.71875 C 2.21875 -0.5 2.164062 -0.285156 2.0625 -0.078125 C 1.96875 0.117188 1.804688 0.21875 1.578125 0.21875 C 1.398438 0.21875 1.269531 0.179688 1.1875 0.109375 C 1.101562 0.0351562 1.050781 -0.0664062 1.03125 -0.203125 C 1.007812 -0.335938 1 -0.535156 1 -0.796875 C 1 -1.117188 1.066406 -1.375 1.203125 -1.5625 C 1.335938 -1.75 1.515625 -1.84375 1.734375 -1.84375 C 1.878906 -1.84375 1.988281 -1.789062 2.0625 -1.6875 C 2.132812 -1.59375 2.175781 -1.46875 2.1875 -1.3125 C 2.207031 -1.15625 2.21875 -0.957031 2.21875 -0.71875 Z M 2.21875 -0.71875 "/></g></g></g><g fill="#ffffff" fill-opacity="1"><g transform="translate(186.715314, 269.133585)"><g><path d="M 7.078125 -5.03125 C 7.210938 -5.03125 7.335938 -4.945312 7.453125 -4.78125 C 7.566406 -4.625 7.625 -4.457031 7.625 -4.28125 C 7.625 -3.914062 7.53125 -3.679688 7.34375 -3.578125 C 7.34375 -3.390625 7.335938 -3.128906 7.328125 -2.796875 C 7.304688 -2.535156 7.296875 -2.273438 7.296875 -2.015625 C 7.296875 -1.679688 7.3125 -1.3125 7.34375 -0.90625 C 7.34375 -0.625 7.320312 -0.410156 7.28125 -0.265625 C 7.25 -0.128906 7.203125 -0.0390625 7.140625 0 C 7.085938 0.0507812 7.015625 0.078125 6.921875 0.078125 C 6.816406 0.078125 6.726562 0.046875 6.65625 -0.015625 C 6.59375 -0.0859375 6.535156 -0.164062 6.484375 -0.25 C 6.429688 -0.332031 6.390625 -0.394531 6.359375 -0.4375 C 6.109375 -0.3125 5.8125 -0.191406 5.46875 -0.078125 C 5.132812 0.0351562 4.804688 0.09375 4.484375 0.09375 C 3.328125 0.09375 2.457031 -0.285156 1.875 -1.046875 C 1.289062 -1.804688 1 -2.898438 1 -4.328125 C 1 -4.898438 1.15625 -5.582031 1.46875 -6.375 C 1.789062 -7.175781 2.234375 -7.867188 2.796875 -8.453125 C 3.367188 -9.035156 4.019531 -9.328125 4.75 -9.328125 C 5.1875 -9.328125 5.59375 -9.242188 5.96875 -9.078125 C 6.34375 -8.921875 6.644531 -8.691406 6.875 -8.390625 C 7.101562 -8.085938 7.21875 -7.734375 7.21875 -7.328125 C 7.21875 -7.023438 7.1875 -6.796875 7.125 -6.640625 C 7.0625 -6.492188 6.972656 -6.421875 6.859375 -6.421875 C 6.828125 -6.421875 6.785156 -6.453125 6.734375 -6.515625 C 6.679688 -6.585938 6.628906 -6.664062 6.578125 -6.75 C 6.484375 -6.914062 6.410156 -7.019531 6.359375 -7.0625 C 5.835938 -7.613281 5.273438 -7.890625 4.671875 -7.890625 C 4.265625 -7.890625 3.851562 -7.6875 3.4375 -7.28125 C 3.019531 -6.882812 2.675781 -6.390625 2.40625 -5.796875 C 2.132812 -5.210938 2 -4.65625 2 -4.125 C 2 -3.5 2.109375 -2.976562 2.328125 -2.5625 C 2.554688 -2.144531 2.867188 -1.832031 3.265625 -1.625 C 3.671875 -1.425781 4.132812 -1.328125 4.65625 -1.328125 C 5.113281 -1.328125 5.460938 -1.363281 5.703125 -1.4375 C 5.941406 -1.519531 6.101562 -1.644531 6.1875 -1.8125 C 6.269531 -1.976562 6.3125 -2.207031 6.3125 -2.5 L 6.3125 -3.40625 C 6.039062 -3.375 5.675781 -3.359375 5.21875 -3.359375 C 5.101562 -3.359375 4.984375 -3.390625 4.859375 -3.453125 C 4.742188 -3.523438 4.644531 -3.625 4.5625 -3.75 C 4.488281 -3.875 4.453125 -4.019531 4.453125 -4.1875 C 4.453125 -4.476562 4.519531 -4.675781 4.65625 -4.78125 C 4.789062 -4.882812 4.96875 -4.9375 5.1875 -4.9375 C 5.34375 -4.9375 5.570312 -4.925781 5.875 -4.90625 C 6.007812 -4.90625 6.207031 -4.925781 6.46875 -4.96875 C 6.707031 -5.007812 6.910156 -5.03125 7.078125 -5.03125 Z M 7.078125 -5.03125 "/></g></g></g><g fill="#ffffff" fill-opacity="1"><g transform="translate(200.198032, 269.133585)"><g><path d="M 2.359375 -0.515625 C 2.347656 -0.421875 2.304688 -0.328125 2.234375 -0.234375 C 2.160156 -0.140625 2.070312 -0.0625 1.96875 0 C 1.875 0.0507812 1.796875 0.078125 1.734375 0.078125 C 1.523438 0.078125 1.382812 -0.0195312 1.3125 -0.21875 C 1.25 -0.425781 1.21875 -0.722656 1.21875 -1.109375 C 1.21875 -1.234375 1.222656 -1.75 1.234375 -2.65625 C 1.242188 -3.144531 1.25 -3.476562 1.25 -3.65625 C 1.25 -4.070312 1.242188 -4.628906 1.234375 -5.328125 L 1.234375 -6.609375 C 1.234375 -7.503906 1.269531 -8.160156 1.34375 -8.578125 C 1.425781 -9.003906 1.582031 -9.21875 1.8125 -9.21875 C 1.882812 -9.21875 1.957031 -9.164062 2.03125 -9.0625 C 2.113281 -8.96875 2.179688 -8.847656 2.234375 -8.703125 C 2.296875 -8.554688 2.328125 -8.414062 2.328125 -8.28125 L 2.328125 -6.765625 C 2.316406 -6.429688 2.3125 -5.9375 2.3125 -5.28125 L 6.171875 -5.28125 C 6.148438 -6.8125 6.140625 -7.765625 6.140625 -8.140625 C 6.148438 -8.503906 6.1875 -8.78125 6.25 -8.96875 C 6.3125 -9.164062 6.441406 -9.265625 6.640625 -9.265625 C 6.867188 -9.265625 7.019531 -9.144531 7.09375 -8.90625 C 7.175781 -8.664062 7.21875 -8.285156 7.21875 -7.765625 C 7.21875 -7.679688 7.21875 -7.601562 7.21875 -7.53125 C 7.21875 -7.414062 7.210938 -7.160156 7.203125 -6.765625 C 7.203125 -6.378906 7.203125 -5.863281 7.203125 -5.21875 C 7.234375 -5.144531 7.257812 -5.054688 7.28125 -4.953125 C 7.3125 -4.847656 7.332031 -4.738281 7.34375 -4.625 L 7.25 -4.125 C 7.28125 -2.914062 7.296875 -1.78125 7.296875 -0.71875 C 7.296875 -0.488281 7.242188 -0.296875 7.140625 -0.140625 C 7.035156 0.015625 6.898438 0.09375 6.734375 0.09375 C 6.523438 0.09375 6.375 0.015625 6.28125 -0.140625 C 6.195312 -0.304688 6.15625 -0.601562 6.15625 -1.03125 L 6.203125 -3.796875 L 4.65625 -3.796875 C 3.988281 -3.796875 3.492188 -3.789062 3.171875 -3.78125 C 2.859375 -3.769531 2.570312 -3.753906 2.3125 -3.734375 C 2.332031 -1.765625 2.34375 -0.789062 2.34375 -0.8125 Z M 2.359375 -0.515625 "/></g></g></g><g fill="#ffffff" fill-opacity="1"><g transform="translate(213.794391, 269.133585)"><g/></g></g><g fill="#ffffff" fill-opacity="1"><g transform="translate(222.079981, 269.133585)"><g><path d="M 4.203125 -0.609375 C 4.203125 -0.410156 4.1875 -0.265625 4.15625 -0.171875 C 4.132812 -0.078125 4.085938 -0.0078125 4.015625 0.03125 C 3.941406 0.0703125 3.820312 0.09375 3.65625 0.09375 C 3.457031 0.09375 3.3125 0.0507812 3.21875 -0.03125 C 3.125 -0.125 3.054688 -0.242188 3.015625 -0.390625 C 2.984375 -0.546875 2.96875 -0.753906 2.96875 -1.015625 L 2.984375 -1.25 C 2.984375 -1.289062 2.984375 -1.363281 2.984375 -1.46875 L 2.78125 -7.5625 C 2.664062 -7.550781 2.515625 -7.53125 2.328125 -7.5 C 1.796875 -7.425781 1.398438 -7.390625 1.140625 -7.390625 C 0.898438 -7.390625 0.722656 -7.4375 0.609375 -7.53125 C 0.492188 -7.632812 0.4375 -7.789062 0.4375 -8 C 0.4375 -8.382812 0.519531 -8.65625 0.6875 -8.8125 C 0.863281 -8.96875 1.082031 -9.046875 1.34375 -9.046875 L 4.53125 -9.0625 L 5.734375 -9.140625 C 5.921875 -9.140625 6.070312 -9.0625 6.1875 -8.90625 C 6.300781 -8.757812 6.359375 -8.578125 6.359375 -8.359375 C 6.359375 -8.253906 6.328125 -8.125 6.265625 -7.96875 C 6.203125 -7.820312 6.117188 -7.691406 6.015625 -7.578125 C 5.921875 -7.460938 5.820312 -7.40625 5.71875 -7.40625 C 5.644531 -7.40625 5.53125 -7.457031 5.375 -7.5625 C 5.300781 -7.625 5.234375 -7.664062 5.171875 -7.6875 C 5.117188 -7.71875 5.0625 -7.734375 5 -7.734375 C 4.476562 -7.734375 4.097656 -7.71875 3.859375 -7.6875 L 4.078125 -1.5 C 4.140625 -1.082031 4.179688 -0.785156 4.203125 -0.609375 Z M 4.203125 -0.609375 "/></g></g></g><g fill="#ffffff" fill-opacity="1"><g transform="translate(233.835374, 269.133585)"><g><path d="M 6.421875 -8.921875 C 6.671875 -8.921875 6.851562 -8.90625 6.96875 -8.875 C 7.082031 -8.851562 7.164062 -8.796875 7.21875 -8.703125 C 7.269531 -8.609375 7.296875 -8.457031 7.296875 -8.25 C 7.296875 -8.0625 7.242188 -7.875 7.140625 -7.6875 C 7.035156 -7.507812 6.914062 -7.421875 6.78125 -7.421875 C 4.488281 -7.429688 2.96875 -7.445312 2.21875 -7.46875 C 2.21875 -7.3125 2.210938 -7.003906 2.203125 -6.546875 C 2.191406 -6.066406 2.1875 -5.734375 2.1875 -5.546875 L 5.03125 -5.578125 C 5.207031 -5.578125 5.347656 -5.515625 5.453125 -5.390625 C 5.554688 -5.265625 5.609375 -5.070312 5.609375 -4.8125 C 5.609375 -4.738281 5.585938 -4.640625 5.546875 -4.515625 C 5.503906 -4.398438 5.445312 -4.296875 5.375 -4.203125 C 5.300781 -4.117188 5.210938 -4.078125 5.109375 -4.078125 C 4.160156 -4.078125 3.410156 -4.082031 2.859375 -4.09375 C 2.742188 -4.09375 2.613281 -4.09375 2.46875 -4.09375 C 2.332031 -4.09375 2.25 -4.085938 2.21875 -4.078125 L 2.265625 -1.625 C 2.597656 -1.625 2.972656 -1.613281 3.390625 -1.59375 C 3.804688 -1.582031 4.082031 -1.578125 4.21875 -1.578125 C 5.15625 -1.535156 5.878906 -1.515625 6.390625 -1.515625 C 6.722656 -1.515625 6.890625 -1.222656 6.890625 -0.640625 C 6.890625 -0.347656 6.816406 -0.140625 6.671875 -0.015625 C 6.523438 0.109375 6.332031 0.171875 6.09375 0.171875 C 5.882812 0.171875 5.578125 0.148438 5.171875 0.109375 C 4.878906 0.078125 4.597656 0.0507812 4.328125 0.03125 C 4.066406 0.0195312 3.726562 0.015625 3.3125 0.015625 C 3.125 0.015625 2.894531 0.0234375 2.625 0.046875 C 2.21875 0.078125 1.957031 0.09375 1.84375 0.09375 C 1.644531 0.09375 1.484375 0.00390625 1.359375 -0.171875 C 1.242188 -0.359375 1.1875 -0.59375 1.1875 -0.875 L 1.234375 -4.25 C 1.234375 -4.320312 1.222656 -4.398438 1.203125 -4.484375 C 1.191406 -4.503906 1.179688 -4.546875 1.171875 -4.609375 C 1.160156 -4.671875 1.15625 -4.734375 1.15625 -4.796875 C 1.15625 -4.921875 1.1875 -5.0625 1.25 -5.21875 C 1.226562 -6 1.21875 -6.816406 1.21875 -7.671875 C 1.21875 -7.929688 1.226562 -8.148438 1.25 -8.328125 C 1.269531 -8.515625 1.320312 -8.675781 1.40625 -8.8125 C 1.5 -8.945312 1.632812 -9.015625 1.8125 -9.015625 C 1.90625 -9.015625 2 -9.003906 2.09375 -8.984375 C 2.1875 -8.972656 2.25 -8.960938 2.28125 -8.953125 C 2.488281 -8.910156 2.65625 -8.890625 2.78125 -8.890625 L 4.59375 -8.90625 C 5.488281 -8.914062 6.097656 -8.921875 6.421875 -8.921875 Z M 6.421875 -8.921875 "/></g></g></g><g fill="#ffffff" fill-opacity="1"><g transform="translate(246.477158, 269.133585)"><g><path d="M 1.4375 -6.484375 C 1.582031 -6.898438 1.8125 -7.320312 2.125 -7.75 C 2.4375 -8.1875 2.800781 -8.550781 3.21875 -8.84375 C 3.644531 -9.144531 4.078125 -9.296875 4.515625 -9.296875 C 4.941406 -9.296875 5.347656 -9.195312 5.734375 -9 C 6.128906 -8.800781 6.445312 -8.503906 6.6875 -8.109375 C 6.925781 -7.710938 7.046875 -7.25 7.046875 -6.71875 C 7.046875 -6.570312 7.019531 -6.410156 6.96875 -6.234375 C 6.925781 -6.066406 6.851562 -5.921875 6.75 -5.796875 C 6.65625 -5.671875 6.535156 -5.609375 6.390625 -5.609375 C 6.273438 -5.609375 6.1875 -5.640625 6.125 -5.703125 C 6.070312 -5.773438 6.035156 -5.859375 6.015625 -5.953125 C 6.003906 -6.054688 5.988281 -6.203125 5.96875 -6.390625 C 5.957031 -6.691406 5.921875 -6.941406 5.859375 -7.140625 C 5.796875 -7.335938 5.660156 -7.507812 5.453125 -7.65625 C 5.253906 -7.800781 4.941406 -7.875 4.515625 -7.875 C 3.941406 -7.875 3.453125 -7.609375 3.046875 -7.078125 C 2.640625 -6.546875 2.332031 -5.925781 2.125 -5.21875 C 1.914062 -4.519531 1.8125 -3.945312 1.8125 -3.5 C 1.8125 -3.050781 1.929688 -2.660156 2.171875 -2.328125 C 2.410156 -2.003906 2.71875 -1.753906 3.09375 -1.578125 C 3.46875 -1.410156 3.859375 -1.328125 4.265625 -1.328125 C 4.628906 -1.328125 5.03125 -1.351562 5.46875 -1.40625 C 5.914062 -1.46875 6.273438 -1.5625 6.546875 -1.6875 C 6.722656 -1.851562 6.851562 -1.96875 6.9375 -2.03125 C 7.03125 -2.101562 7.097656 -2.140625 7.140625 -2.140625 C 7.304688 -2.140625 7.4375 -2.066406 7.53125 -1.921875 C 7.632812 -1.785156 7.6875 -1.609375 7.6875 -1.390625 C 7.6875 -1.035156 7.507812 -0.742188 7.15625 -0.515625 C 6.800781 -0.296875 6.375 -0.132812 5.875 -0.03125 C 5.375 0.0625 4.882812 0.109375 4.40625 0.109375 C 3.363281 0.109375 2.5 -0.148438 1.8125 -0.671875 C 1.132812 -1.203125 0.796875 -2.132812 0.796875 -3.46875 C 0.796875 -3.945312 0.847656 -4.421875 0.953125 -4.890625 C 1.066406 -5.367188 1.226562 -5.898438 1.4375 -6.484375 Z M 1.4375 -6.484375 "/></g></g></g><g fill="#ffffff" fill-opacity="1"><g transform="translate(259.785629, 269.133585)"><g><path d="M 2.359375 -0.515625 C 2.347656 -0.421875 2.304688 -0.328125 2.234375 -0.234375 C 2.160156 -0.140625 2.070312 -0.0625 1.96875 0 C 1.875 0.0507812 1.796875 0.078125 1.734375 0.078125 C 1.523438 0.078125 1.382812 -0.0195312 1.3125 -0.21875 C 1.25 -0.425781 1.21875 -0.722656 1.21875 -1.109375 C 1.21875 -1.234375 1.222656 -1.75 1.234375 -2.65625 C 1.242188 -3.144531 1.25 -3.476562 1.25 -3.65625 C 1.25 -4.070312 1.242188 -4.628906 1.234375 -5.328125 L 1.234375 -6.609375 C 1.234375 -7.503906 1.269531 -8.160156 1.34375 -8.578125 C 1.425781 -9.003906 1.582031 -9.21875 1.8125 -9.21875 C 1.882812 -9.21875 1.957031 -9.164062 2.03125 -9.0625 C 2.113281 -8.96875 2.179688 -8.847656 2.234375 -8.703125 C 2.296875 -8.554688 2.328125 -8.414062 2.328125 -8.28125 L 2.328125 -6.765625 C 2.316406 -6.429688 2.3125 -5.9375 2.3125 -5.28125 L 6.171875 -5.28125 C 6.148438 -6.8125 6.140625 -7.765625 6.140625 -8.140625 C 6.148438 -8.503906 6.1875 -8.78125 6.25 -8.96875 C 6.3125 -9.164062 6.441406 -9.265625 6.640625 -9.265625 C 6.867188 -9.265625 7.019531 -9.144531 7.09375 -8.90625 C 7.175781 -8.664062 7.21875 -8.285156 7.21875 -7.765625 C 7.21875 -7.679688 7.21875 -7.601562 7.21875 -7.53125 C 7.21875 -7.414062 7.210938 -7.160156 7.203125 -6.765625 C 7.203125 -6.378906 7.203125 -5.863281 7.203125 -5.21875 C 7.234375 -5.144531 7.257812 -5.054688 7.28125 -4.953125 C 7.3125 -4.847656 7.332031 -4.738281 7.34375 -4.625 L 7.25 -4.125 C 7.28125 -2.914062 7.296875 -1.78125 7.296875 -0.71875 C 7.296875 -0.488281 7.242188 -0.296875 7.140625 -0.140625 C 7.035156 0.015625 6.898438 0.09375 6.734375 0.09375 C 6.523438 0.09375 6.375 0.015625 6.28125 -0.140625 C 6.195312 -0.304688 6.15625 -0.601562 6.15625 -1.03125 L 6.203125 -3.796875 L 4.65625 -3.796875 C 3.988281 -3.796875 3.492188 -3.789062 3.171875 -3.78125 C 2.859375 -3.769531 2.570312 -3.753906 2.3125 -3.734375 C 2.332031 -1.765625 2.34375 -0.789062 2.34375 -0.8125 Z M 2.359375 -0.515625 "/></g></g></g></svg>